<svg width="28" height="28" viewBox="0 0 28 28" fill="none" xmlns="http://www.w3.org/2000/svg">
<circle cx="14" cy="14" r="14" fill="#525252"/>
<path d="M25.2 14C25.2 20.1856 20.1856 25.2 14 25.2C7.8144 25.2 2.79999 20.1856 2.79999 14C2.79999 7.8144 7.8144 2.79999 14 2.79999C20.1856 2.79999 25.2 7.8144 25.2 14ZM6.15999 14C6.15999 18.3299 9.67008 21.84 14 21.84C18.3299 21.84 21.84 18.3299 21.84 14C21.84 9.67008 18.3299 6.15999 14 6.15999C9.67008 6.15999 6.15999 9.67008 6.15999 14Z" fill="#909090"/>
<path d="M14 25.2C11.0296 25.2 8.18083 24.02 6.08042 21.9196C3.98001 19.8192 2.80002 16.9704 2.80002 14C2.80002 11.0296 3.98002 8.1808 6.08042 6.08039C8.18083 3.97998 11.0296 2.79999 14 2.79999L14 6.15999C11.9207 6.15999 9.92659 6.98599 8.4563 8.45627C6.98602 9.92656 6.16002 11.9207 6.16002 14C6.16002 16.0793 6.98602 18.0734 8.4563 19.5437C9.92659 21.014 11.9207 21.84 14 21.84L14 25.2Z" fill="#F2D01D"/>
<path d="M15.04 16.144C15.04 15.8733 14.9793 15.6353 14.858 15.43C14.7367 15.2153 14.5267 15.038 14.228 14.898C13.9293 14.758 13.528 14.6507 13.024 14.576C12.52 14.5013 11.8853 14.464 11.12 14.464C11.2227 13.596 11.3067 12.714 11.372 11.818C11.4373 10.922 11.4887 10.082 11.526 9.298H16.776V11.048H13.276C13.2573 11.384 13.234 11.7107 13.206 12.028C13.1873 12.336 13.164 12.6067 13.136 12.84C14.4987 12.9333 15.502 13.2553 16.146 13.806C16.7993 14.3473 17.126 15.1033 17.126 16.074C17.126 16.522 17.0467 16.9373 16.888 17.32C16.7293 17.7027 16.4913 18.034 16.174 18.314C15.8567 18.594 15.4553 18.8133 14.97 18.972C14.494 19.1307 13.934 19.21 13.29 19.21C13.038 19.21 12.772 19.1913 12.492 19.154C12.2213 19.126 11.9553 19.084 11.694 19.028C11.442 18.9813 11.2133 18.93 11.008 18.874C10.8027 18.818 10.644 18.762 10.532 18.706L10.91 16.984C11.1433 17.0867 11.4513 17.1893 11.834 17.292C12.2167 17.3853 12.674 17.432 13.206 17.432C13.85 17.432 14.3167 17.306 14.606 17.054C14.8953 16.7927 15.04 16.4893 15.04 16.144Z" fill="#F2D01D"/>
</svg>
