<svg width="28" height="28" viewBox="0 0 28 28" fill="none" xmlns="http://www.w3.org/2000/svg">
<circle cx="14" cy="14" r="14" fill="#525252"/>
<path d="M25.2 14C25.2 20.1856 20.1856 25.2 14 25.2C7.8144 25.2 2.79999 20.1856 2.79999 14C2.79999 7.8144 7.8144 2.79999 14 2.79999C20.1856 2.79999 25.2 7.8144 25.2 14ZM6.15999 14C6.15999 18.3299 9.67008 21.84 14 21.84C18.3299 21.84 21.84 18.3299 21.84 14C21.84 9.67008 18.3299 6.15999 14 6.15999C9.67008 6.15999 6.15999 9.67008 6.15999 14Z" fill="#909090"/>
<path d="M14 25.2C11.6348 25.2 9.33032 24.4512 7.41682 23.061C5.50333 21.6707 4.07907 19.7104 3.34818 17.461L6.54373 16.4227C7.05536 17.9973 8.05234 19.3695 9.39178 20.3427C10.7312 21.3158 12.3444 21.84 14 21.84L14 25.2Z" fill="#1DF23F"/>
<path d="M16.944 11.846C16.944 12.2007 16.874 12.5413 16.734 12.868C16.594 13.1947 16.412 13.512 16.188 13.82C15.964 14.1187 15.712 14.408 15.432 14.688C15.152 14.968 14.8767 15.234 14.606 15.486C14.466 15.6167 14.312 15.766 14.144 15.934C13.9853 16.0927 13.8313 16.256 13.682 16.424C13.5327 16.592 13.3973 16.7507 13.276 16.9C13.164 17.04 13.094 17.1567 13.066 17.25H17.238V19H10.77C10.7513 18.8973 10.742 18.7667 10.742 18.608C10.742 18.4493 10.742 18.3373 10.742 18.272C10.742 17.824 10.812 17.4133 10.952 17.04C11.1013 16.6667 11.2927 16.3213 11.526 16.004C11.7593 15.6773 12.0207 15.374 12.31 15.094C12.6087 14.814 12.9027 14.534 13.192 14.254C13.416 14.0393 13.626 13.8387 13.822 13.652C14.018 13.456 14.1907 13.2693 14.34 13.092C14.4893 12.9053 14.606 12.7233 14.69 12.546C14.774 12.3593 14.816 12.1727 14.816 11.986C14.816 11.5753 14.6993 11.286 14.466 11.118C14.2327 10.95 13.9433 10.866 13.598 10.866C13.346 10.866 13.108 10.908 12.884 10.992C12.6693 11.0667 12.4687 11.16 12.282 11.272C12.1047 11.3747 11.9507 11.482 11.82 11.594C11.6893 11.6967 11.5913 11.7807 11.526 11.846L10.49 10.39C10.9007 10.0073 11.3767 9.69467 11.918 9.452C12.4687 9.2 13.0567 9.074 13.682 9.074C14.2513 9.074 14.7413 9.13933 15.152 9.27C15.5627 9.40067 15.8987 9.58733 16.16 9.83C16.4307 10.0633 16.6267 10.3527 16.748 10.698C16.8787 11.034 16.944 11.4167 16.944 11.846Z" fill="#1DF23F"/>
</svg>
