<svg width="28" height="28" viewBox="0 0 28 28" fill="none" xmlns="http://www.w3.org/2000/svg">
<circle cx="14" cy="14" r="14" fill="#525252"/>
<path d="M25.2 14C25.2 20.1856 20.1856 25.2 14 25.2C7.8144 25.2 2.79999 20.1856 2.79999 14C2.79999 7.8144 7.8144 2.79999 14 2.79999C20.1856 2.79999 25.2 7.8144 25.2 14ZM6.15999 14C6.15999 18.3299 9.67008 21.84 14 21.84C18.3299 21.84 21.84 18.3299 21.84 14C21.84 9.67008 18.3299 6.15999 14 6.15999C9.67008 6.15999 6.15999 9.67008 6.15999 14Z" fill="#909090"/>
<path d="M14 25.2C11.9345 25.2 9.90919 24.6288 8.14803 23.5496C6.38688 22.4703 4.95848 20.9251 4.02074 19.0847C3.08301 17.2443 2.67248 15.1804 2.83454 13.1212C2.9966 11.0621 3.72494 9.08784 4.93903 7.41679C6.15312 5.74574 7.80566 4.44298 9.71396 3.65254C11.6223 2.86209 13.712 2.61476 15.7521 2.93788C17.7922 3.261 19.7032 4.14199 21.2738 5.48344C22.8445 6.8249 24.0136 8.57456 24.6519 10.539L21.4563 11.5773C21.0095 10.2022 20.1911 8.97742 19.0917 8.03841C17.9922 7.09939 16.6545 6.4827 15.2265 6.25651C13.7984 6.03033 12.3356 6.20346 10.9998 6.75677C9.66397 7.31008 8.50719 8.22202 7.65733 9.39175C6.80746 10.5615 6.29763 11.9435 6.18419 13.3849C6.07074 14.8263 6.35812 16.271 7.01453 17.5593C7.67094 18.8476 8.67082 19.9292 9.90363 20.6847C11.1364 21.4402 12.5541 21.84 14 21.84L14 25.2Z" fill="#F2D01D"/>
<path d="M11.988 19C12.044 18.3187 12.1607 17.6093 12.338 16.872C12.5153 16.1347 12.73 15.4113 12.982 14.702C13.2433 13.9927 13.5327 13.3253 13.85 12.7C14.1673 12.0653 14.4893 11.5193 14.816 11.062H10.602V9.284H17.392V10.796C17.0933 11.1227 16.762 11.5753 16.398 12.154C16.0433 12.7327 15.7027 13.3907 15.376 14.128C15.0587 14.856 14.7787 15.64 14.536 16.48C14.3027 17.32 14.158 18.16 14.102 19H11.988Z" fill="#F2D01D"/>
</svg>
