<svg width="28" height="28" viewBox="0 0 28 28" fill="none" xmlns="http://www.w3.org/2000/svg">
<circle cx="14" cy="14" r="14" fill="#525252"/>
<path d="M25.2 14C25.2 20.1856 20.1856 25.2 14 25.2C7.8144 25.2 2.79999 20.1856 2.79999 14C2.79999 7.8144 7.8144 2.79999 14 2.79999C20.1856 2.79999 25.2 7.8144 25.2 14ZM6.15999 14C6.15999 18.3299 9.67008 21.84 14 21.84C18.3299 21.84 21.84 18.3299 21.84 14C21.84 9.67008 18.3299 6.15999 14 6.15999C9.67008 6.15999 6.15999 9.67008 6.15999 14Z" fill="#909090"/>
<path d="M14 25.2C11.6348 25.2 9.33032 24.4512 7.41682 23.061C5.50333 21.6707 4.07907 19.7104 3.34818 17.461C2.6173 15.2115 2.6173 12.7884 3.34819 10.539C4.07908 8.28955 5.50333 6.32923 7.41682 4.939C9.33032 3.54876 11.6348 2.79999 14 2.79999C16.3652 2.79999 18.6697 3.54876 20.5832 4.939C22.4967 6.32923 23.921 8.28955 24.6519 10.539C25.3827 12.7884 25.3827 15.2115 24.6518 17.461L21.4563 16.4227C21.9679 14.8481 21.9679 13.1519 21.4563 11.5773C20.9447 10.0027 19.9477 8.63046 18.6083 7.6573C17.2688 6.68413 15.6557 6.15999 14 6.15999C12.3444 6.15999 10.7312 6.68413 9.39178 7.65729C8.05234 8.63046 7.05536 10.0027 6.54374 11.5773C6.03211 13.1519 6.03211 14.8481 6.54374 16.4227C7.05536 17.9973 8.05234 19.3695 9.39178 20.3427C10.7312 21.3158 12.3444 21.84 14 21.84L14 25.2Z" fill="#F2761D"/>
<path d="M17.42 16.298C17.42 16.718 17.3453 17.1053 17.196 17.46C17.056 17.8053 16.8413 18.1087 16.552 18.37C16.2627 18.6313 15.8987 18.8367 15.46 18.986C15.0307 19.126 14.5313 19.196 13.962 19.196C13.3087 19.196 12.7627 19.1073 12.324 18.93C11.8947 18.7433 11.5447 18.5147 11.274 18.244C11.0127 17.9733 10.826 17.6793 10.714 17.362C10.602 17.0353 10.546 16.7367 10.546 16.466C10.546 16.186 10.5833 15.9293 10.658 15.696C10.7327 15.4627 10.8353 15.2527 10.966 15.066C11.0967 14.87 11.2413 14.6927 11.4 14.534C11.568 14.3753 11.7453 14.226 11.932 14.086C11.5307 13.7593 11.232 13.4373 11.036 13.12C10.8493 12.8027 10.756 12.3967 10.756 11.902C10.756 11.5287 10.8307 11.1693 10.98 10.824C11.1387 10.4787 11.358 10.18 11.638 9.928C11.918 9.66667 12.254 9.46133 12.646 9.312C13.0473 9.15333 13.4907 9.074 13.976 9.074C14.5453 9.074 15.0307 9.158 15.432 9.326C15.8427 9.48467 16.1787 9.69 16.44 9.942C16.7013 10.194 16.888 10.4787 17 10.796C17.1213 11.104 17.182 11.412 17.182 11.72C17.182 12.168 17.0607 12.588 16.818 12.98C16.5847 13.3627 16.2907 13.666 15.936 13.89C16.468 14.2353 16.846 14.5993 17.07 14.982C17.3033 15.3553 17.42 15.794 17.42 16.298ZM12.576 16.382C12.576 16.494 12.5993 16.62 12.646 16.76C12.702 16.8907 12.786 17.012 12.898 17.124C13.01 17.236 13.1547 17.3293 13.332 17.404C13.5093 17.4787 13.724 17.516 13.976 17.516C14.4613 17.516 14.816 17.3993 15.04 17.166C15.264 16.9327 15.376 16.6713 15.376 16.382C15.376 16.1673 15.3247 15.976 15.222 15.808C15.1287 15.64 14.998 15.4953 14.83 15.374C14.662 15.2433 14.4613 15.1313 14.228 15.038C14.004 14.9353 13.7613 14.842 13.5 14.758C13.2387 14.954 13.0193 15.1827 12.842 15.444C12.6647 15.7053 12.576 16.018 12.576 16.382ZM15.166 11.776C15.166 11.6733 15.1427 11.566 15.096 11.454C15.0587 11.3327 14.9887 11.2207 14.886 11.118C14.7927 11.0153 14.6713 10.9313 14.522 10.866C14.3727 10.7913 14.1907 10.754 13.976 10.754C13.7707 10.754 13.5933 10.7867 13.444 10.852C13.2947 10.9173 13.1687 11.006 13.066 11.118C12.9727 11.2207 12.9027 11.3327 12.856 11.454C12.8093 11.5753 12.786 11.692 12.786 11.804C12.786 12.1027 12.8933 12.3827 13.108 12.644C13.332 12.9053 13.71 13.1293 14.242 13.316C14.5407 13.1293 14.7693 12.9147 14.928 12.672C15.0867 12.4293 15.166 12.1307 15.166 11.776Z" fill="#F2761D"/>
</svg>
