<svg width="28" height="28" viewBox="0 0 28 28" fill="none" xmlns="http://www.w3.org/2000/svg">
<circle cx="14" cy="14" r="14" fill="#525252"/>
<path d="M25.2 14C25.2 20.1856 20.1856 25.2 14 25.2C7.8144 25.2 2.79999 20.1856 2.79999 14C2.79999 7.8144 7.8144 2.79999 14 2.79999C20.1856 2.79999 25.2 7.8144 25.2 14ZM6.15999 14C6.15999 18.3299 9.67008 21.84 14 21.84C18.3299 21.84 21.84 18.3299 21.84 14C21.84 9.67008 18.3299 6.15999 14 6.15999C9.67008 6.15999 6.15999 9.67008 6.15999 14Z" fill="#909090"/>
<path d="M14 25.2C12.2325 25.2 10.4902 24.7817 8.91532 23.9793C7.34049 23.1768 5.97792 22.0131 4.93903 20.5832C3.90013 19.1533 3.2144 17.4978 2.93791 15.7521C2.66141 14.0063 2.80201 12.22 3.34819 10.539C3.89437 8.85803 4.83063 7.33018 6.08042 6.08039C7.33022 4.8306 8.85806 3.89433 10.539 3.34815C12.22 2.80197 14.0064 2.66138 15.7521 2.93788C17.4978 3.21437 19.1533 3.9001 20.5832 4.939L18.6083 7.6573C17.6073 6.93007 16.4485 6.45006 15.2265 6.25651C14.0045 6.06297 12.754 6.16138 11.5773 6.5437C10.4006 6.92603 9.33116 7.58141 8.4563 8.45627C7.58145 9.33113 6.92606 10.4006 6.54374 11.5773C6.16141 12.754 6.063 14.0044 6.25654 15.2264C6.45009 16.4484 6.9301 17.6073 7.65732 18.6082C8.38455 19.6092 9.33835 20.4238 10.4407 20.9855C11.5431 21.5472 12.7628 21.84 14 21.84L14 25.2Z" fill="#F2D01D"/>
<path d="M13.836 14.436C13.6307 14.436 13.4113 14.4547 13.178 14.492C12.9447 14.5293 12.7627 14.5807 12.632 14.646C12.632 14.6833 12.6273 14.7393 12.618 14.814C12.618 14.8887 12.618 14.954 12.618 15.01C12.618 15.346 12.6413 15.6633 12.688 15.962C12.7347 16.2607 12.814 16.522 12.926 16.746C13.038 16.97 13.1873 17.1473 13.374 17.278C13.5607 17.3993 13.794 17.46 14.074 17.46C14.3073 17.46 14.5033 17.4133 14.662 17.32C14.83 17.2173 14.9653 17.0913 15.068 16.942C15.18 16.7927 15.2593 16.6293 15.306 16.452C15.362 16.2653 15.39 16.088 15.39 15.92C15.39 15.444 15.2687 15.08 15.026 14.828C14.7927 14.5667 14.396 14.436 13.836 14.436ZM14.102 12.812C14.7087 12.812 15.222 12.896 15.642 13.064C16.0713 13.2227 16.4213 13.442 16.692 13.722C16.9627 14.002 17.1587 14.3287 17.28 14.702C17.4013 15.0753 17.462 15.472 17.462 15.892C17.462 16.2653 17.392 16.648 17.252 17.04C17.1213 17.432 16.916 17.7867 16.636 18.104C16.3653 18.4213 16.0153 18.6827 15.586 18.888C15.166 19.0933 14.6667 19.196 14.088 19.196C12.9213 19.196 12.0347 18.8273 11.428 18.09C10.8213 17.3527 10.518 16.3353 10.518 15.038C10.518 14.1047 10.6627 13.2787 10.952 12.56C11.2413 11.8413 11.652 11.2393 12.184 10.754C12.7253 10.2593 13.374 9.886 14.13 9.634C14.8953 9.37267 15.754 9.23733 16.706 9.228C16.7247 9.51733 16.7433 9.802 16.762 10.082C16.7807 10.3527 16.7993 10.6373 16.818 10.936C16.342 10.9453 15.894 10.992 15.474 11.076C15.0633 11.1507 14.6853 11.272 14.34 11.44C14.004 11.608 13.71 11.8273 13.458 12.098C13.206 12.3593 13.01 12.6813 12.87 13.064C13.0753 12.9707 13.2853 12.9053 13.5 12.868C13.7147 12.8307 13.9153 12.812 14.102 12.812Z" fill="#F2D01D"/>
</svg>
