<svg width="28" height="28" viewBox="0 0 28 28" fill="none" xmlns="http://www.w3.org/2000/svg">
<circle cx="14" cy="14" r="14" fill="#525252"/>
<path d="M25.2 14C25.2 20.1856 20.1856 25.2 14 25.2C7.8144 25.2 2.79999 20.1856 2.79999 14C2.79999 7.8144 7.8144 2.79999 14 2.79999C20.1856 2.79999 25.2 7.8144 25.2 14ZM6.15999 14C6.15999 18.3299 9.67008 21.84 14 21.84C18.3299 21.84 21.84 18.3299 21.84 14C21.84 9.67008 18.3299 6.15999 14 6.15999C9.67008 6.15999 6.15999 9.67008 6.15999 14Z" fill="#909090"/>
<path d="M25.2 14C25.2 20.1856 20.1856 25.2 14 25.2C7.8144 25.2 2.79999 20.1856 2.79999 14C2.79999 7.8144 7.8144 2.79999 14 2.79999C20.1856 2.79999 25.2 7.8144 25.2 14ZM6.15999 14C6.15999 18.3299 9.67008 21.84 14 21.84C18.3299 21.84 21.84 18.3299 21.84 14C21.84 9.67008 18.3299 6.15999 14 6.15999C9.67008 6.15999 6.15999 9.67008 6.15999 14Z" fill="#F22A1D"/>
<path d="M7.84 11.412C8.072 11.316 8.312 11.208 8.56 11.088C8.816 10.96 9.064 10.824 9.304 10.68C9.544 10.528 9.772 10.372 9.988 10.212C10.212 10.044 10.412 9.868 10.588 9.684H11.836V18H10.048V12.012C9.808 12.172 9.54 12.32 9.244 12.456C8.948 12.584 8.66 12.696 8.38 12.792L7.84 11.412ZM18.7883 13.824C18.7883 15.224 18.5203 16.3 17.9843 17.052C17.4563 17.796 16.7243 18.168 15.7883 18.168C14.8523 18.168 14.1163 17.796 13.5803 17.052C13.0523 16.3 12.7883 15.224 12.7883 13.824C12.7883 13.128 12.8563 12.512 12.9923 11.976C13.1363 11.44 13.3403 10.988 13.6043 10.62C13.8683 10.252 14.1843 9.972 14.5523 9.78C14.9203 9.588 15.3323 9.492 15.7883 9.492C16.7243 9.492 17.4563 9.868 17.9843 10.62C18.5203 11.364 18.7883 12.432 18.7883 13.824ZM16.9643 13.824C16.9643 13.408 16.9443 13.032 16.9043 12.696C16.8643 12.352 16.8003 12.056 16.7123 11.808C16.6243 11.56 16.5043 11.368 16.3523 11.232C16.2003 11.096 16.0123 11.028 15.7883 11.028C15.5643 11.028 15.3763 11.096 15.2243 11.232C15.0803 11.368 14.9603 11.56 14.8643 11.808C14.7763 12.056 14.7123 12.352 14.6723 12.696C14.6323 13.032 14.6123 13.408 14.6123 13.824C14.6123 14.24 14.6323 14.62 14.6723 14.964C14.7123 15.308 14.7763 15.604 14.8643 15.852C14.9603 16.1 15.0803 16.292 15.2243 16.428C15.3763 16.564 15.5643 16.632 15.7883 16.632C16.0123 16.632 16.2003 16.564 16.3523 16.428C16.5043 16.292 16.6243 16.1 16.7123 15.852C16.8003 15.604 16.8643 15.308 16.9043 14.964C16.9443 14.62 16.9643 14.24 16.9643 13.824Z" fill="#F22A1D"/>
</svg>
