<svg width="28" height="28" viewBox="0 0 28 28" fill="none" xmlns="http://www.w3.org/2000/svg">
<circle cx="14" cy="14" r="14" fill="#525252"/>
<path d="M25.2 14C25.2 20.1856 20.1856 25.2 14 25.2C7.8144 25.2 2.79999 20.1856 2.79999 14C2.79999 7.8144 7.8144 2.79999 14 2.79999C20.1856 2.79999 25.2 7.8144 25.2 14ZM6.15999 14C6.15999 18.3299 9.67008 21.84 14 21.84C18.3299 21.84 21.84 18.3299 21.84 14C21.84 9.67008 18.3299 6.15999 14 6.15999C9.67008 6.15999 6.15999 9.67008 6.15999 14Z" fill="#909090"/>
<path d="M14 25.2C12.2325 25.2 10.4902 24.7817 8.91532 23.9793C7.34049 23.1768 5.97792 22.0131 4.93903 20.5832C3.90013 19.1533 3.2144 17.4978 2.93791 15.7521C2.66141 14.0063 2.80201 12.22 3.34819 10.539L6.54374 11.5773C6.16141 12.754 6.063 14.0044 6.25654 15.2264C6.45009 16.4484 6.9301 17.6073 7.65733 18.6082C8.38455 19.6092 9.33835 20.4238 10.4407 20.9855C11.5431 21.5472 12.7628 21.84 14 21.84L14 25.2Z" fill="#1DF23F"/>
<path d="M13.192 19.21C12.94 19.21 12.674 19.1913 12.394 19.154C12.114 19.126 11.8433 19.084 11.582 19.028C11.3207 18.972 11.0827 18.9113 10.868 18.846C10.6533 18.7807 10.4853 18.72 10.364 18.664L10.77 16.928C11.0127 17.0307 11.3207 17.1427 11.694 17.264C12.0767 17.376 12.548 17.432 13.108 17.432C13.752 17.432 14.2233 17.3107 14.522 17.068C14.8207 16.8253 14.97 16.4987 14.97 16.088C14.97 15.836 14.914 15.626 14.802 15.458C14.6993 15.2807 14.5547 15.1407 14.368 15.038C14.1813 14.926 13.9573 14.8513 13.696 14.814C13.444 14.7673 13.1733 14.744 12.884 14.744H12.072V13.064H12.996C13.2013 13.064 13.3973 13.0453 13.584 13.008C13.78 12.9707 13.9527 12.91 14.102 12.826C14.2513 12.7327 14.368 12.6113 14.452 12.462C14.5453 12.3033 14.592 12.1073 14.592 11.874C14.592 11.6967 14.5547 11.5427 14.48 11.412C14.4053 11.2813 14.3073 11.174 14.186 11.09C14.074 11.006 13.9387 10.9453 13.78 10.908C13.6307 10.8613 13.4767 10.838 13.318 10.838C12.9167 10.838 12.5433 10.8987 12.198 11.02C11.862 11.1413 11.554 11.2907 11.274 11.468L10.532 9.942C10.6813 9.84867 10.854 9.75067 11.05 9.648C11.2553 9.54533 11.4793 9.452 11.722 9.368C11.9647 9.284 12.2213 9.214 12.492 9.158C12.772 9.102 13.066 9.074 13.374 9.074C13.9433 9.074 14.4333 9.144 14.844 9.284C15.264 9.41467 15.6093 9.606 15.88 9.858C16.1507 10.1007 16.3513 10.39 16.482 10.726C16.6127 11.0527 16.678 11.412 16.678 11.804C16.678 12.1867 16.5707 12.56 16.356 12.924C16.1413 13.2787 15.852 13.5493 15.488 13.736C15.992 13.9413 16.3793 14.2493 16.65 14.66C16.93 15.0613 17.07 15.5467 17.07 16.116C17.07 16.564 16.9953 16.9793 16.846 17.362C16.6967 17.7353 16.4633 18.062 16.146 18.342C15.8287 18.6127 15.4227 18.8273 14.928 18.986C14.4427 19.1353 13.864 19.21 13.192 19.21Z" fill="#1DF23F"/>
</svg>
