<svg width="28" height="28" viewBox="0 0 28 28" fill="none" xmlns="http://www.w3.org/2000/svg">
<circle cx="14" cy="14" r="14" fill="#525252"/>
<path d="M25.2 14C25.2 20.1856 20.1856 25.2 14 25.2C7.8144 25.2 2.79999 20.1856 2.79999 14C2.79999 7.8144 7.8144 2.79999 14 2.79999C20.1856 2.79999 25.2 7.8144 25.2 14ZM6.15999 14C6.15999 18.3299 9.67008 21.84 14 21.84C18.3299 21.84 21.84 18.3299 21.84 14C21.84 9.67008 18.3299 6.15999 14 6.15999C9.67008 6.15999 6.15999 9.67008 6.15999 14Z" fill="#909090"/>
<path d="M14 25.2C11.6348 25.2 9.33032 24.4512 7.41682 23.061C5.50333 21.6707 4.07907 19.7104 3.34818 17.461C2.6173 15.2115 2.6173 12.7884 3.34819 10.539C4.07908 8.28955 5.50333 6.32923 7.41683 4.939L9.39178 7.65729C8.05234 8.63046 7.05536 10.0027 6.54374 11.5773C6.03211 13.1519 6.03211 14.8481 6.54374 16.4227C7.05536 17.9973 8.05234 19.3695 9.39178 20.3427C10.7312 21.3158 12.3444 21.84 14 21.84L14 25.2Z" fill="#F2D01D"/>
<path d="M14.466 11.846C14.102 12.322 13.7147 12.84 13.304 13.4C12.8933 13.96 12.548 14.534 12.268 15.122H14.466V11.846ZM16.51 9.298V15.122H17.546V16.83H16.51V19H14.466V16.83H10.28V15.304C10.4853 14.8933 10.742 14.4313 11.05 13.918C11.358 13.3953 11.6987 12.8633 12.072 12.322C12.4547 11.7713 12.856 11.2347 13.276 10.712C13.696 10.1893 14.116 9.718 14.536 9.298H16.51Z" fill="#F2D01D"/>
</svg>
