<svg width="28" height="28" viewBox="0 0 28 28" fill="none" xmlns="http://www.w3.org/2000/svg">
<circle cx="14" cy="14" r="14" fill="#525252"/>
<path d="M25.2 14C25.2 20.1856 20.1856 25.2 14 25.2C7.81441 25.2 2.8 20.1856 2.8 14C2.8 7.8144 7.81441 2.79999 14 2.79999C20.1856 2.79999 25.2 7.8144 25.2 14ZM6.16 14C6.16 18.3299 9.67009 21.84 14 21.84C18.3299 21.84 21.84 18.3299 21.84 14C21.84 9.67008 18.3299 6.15999 14 6.15999C9.67009 6.15999 6.16 9.67008 6.16 14Z" fill="#919191"/>
<path d="M14 25.2C11.6348 25.2 9.3303 24.4512 7.41681 23.061L9.39177 20.3427C10.7312 21.3158 12.3444 21.84 14 21.84L14 25.2Z" fill="white"/>
<path d="M10.98 11.314C11.2507 11.202 11.5307 11.076 11.82 10.936C12.1187 10.7867 12.408 10.628 12.688 10.46C12.968 10.2827 13.234 10.1007 13.486 9.914C13.7473 9.718 13.9807 9.51267 14.186 9.298H15.642V19H13.556V12.014C13.276 12.2007 12.9633 12.3733 12.618 12.532C12.2727 12.6813 11.9367 12.812 11.61 12.924L10.98 11.314Z" fill="white"/>
</svg>
