<svg width="28" height="28" viewBox="0 0 28 28" fill="none" xmlns="http://www.w3.org/2000/svg">
<circle cx="14" cy="14" r="14" fill="#525252"/>
<path d="M25.2 14C25.2 20.1856 20.1856 25.2 14 25.2C7.8144 25.2 2.79999 20.1856 2.79999 14C2.79999 7.8144 7.8144 2.79999 14 2.79999C20.1856 2.79999 25.2 7.8144 25.2 14ZM6.15999 14C6.15999 18.3299 9.67008 21.84 14 21.84C18.3299 21.84 21.84 18.3299 21.84 14C21.84 9.67008 18.3299 6.15999 14 6.15999C9.67008 6.15999 6.15999 9.67008 6.15999 14Z" fill="#909090"/>
<path d="M14 25.2C11.3333 25.2 8.75402 24.2485 6.7262 22.5165C4.69838 20.7846 3.35508 18.386 2.93791 15.7521C2.52074 13.1181 3.05707 10.4218 4.45045 8.148C5.84382 5.87422 8.00279 4.17223 10.539 3.34815C13.0753 2.52408 15.8223 2.63201 18.2861 3.65254C20.7498 4.67306 22.7686 6.5392 23.9793 8.91529C25.19 11.2914 25.5131 14.0215 24.8906 16.6146C24.268 19.2076 22.7407 21.4935 20.5832 23.061L18.6083 20.3427C20.1185 19.2454 21.1876 17.6454 21.6234 15.8302C22.0592 14.015 21.833 12.104 20.9855 10.4407C20.138 8.77744 18.7249 7.47114 17.0003 6.75677C15.2756 6.04241 13.3527 5.96685 11.5773 6.5437C9.80196 7.12056 8.29068 8.31195 7.31532 9.9036C6.33996 11.4952 5.96452 13.3827 6.25654 15.2264C6.54856 17.0702 7.48887 18.7492 8.90835 19.9616C10.3278 21.1739 12.1333 21.84 14 21.84L14 25.2Z" fill="#F2761D"/>
<path d="M14.046 13.792C14.2607 13.792 14.4847 13.7733 14.718 13.736C14.9513 13.6893 15.124 13.6287 15.236 13.554V13.428C15.236 13.3907 15.236 13.3533 15.236 13.316C15.2453 13.2787 15.25 13.246 15.25 13.218C15.2407 12.882 15.2127 12.5693 15.166 12.28C15.1193 11.9813 15.04 11.7247 14.928 11.51C14.816 11.286 14.662 11.1133 14.466 10.992C14.2793 10.8613 14.046 10.796 13.766 10.796C13.542 10.796 13.346 10.8427 13.178 10.936C13.01 11.0293 12.8747 11.1507 12.772 11.3C12.6693 11.4493 12.59 11.6127 12.534 11.79C12.4873 11.9673 12.464 12.14 12.464 12.308C12.464 12.812 12.5853 13.1853 12.828 13.428C13.08 13.6707 13.486 13.792 14.046 13.792ZM15.068 15.15C14.872 15.2433 14.6527 15.3133 14.41 15.36C14.1767 15.3973 13.976 15.416 13.808 15.416C13.2013 15.416 12.6833 15.346 12.254 15.206C11.8247 15.0567 11.47 14.8513 11.19 14.59C10.9193 14.3193 10.7187 13.9973 10.588 13.624C10.4573 13.2507 10.392 12.84 10.392 12.392C10.392 12.0187 10.4527 11.636 10.574 11.244C10.7047 10.852 10.9053 10.4973 11.176 10.18C11.4467 9.85333 11.7873 9.58733 12.198 9.382C12.618 9.16733 13.122 9.06 13.71 9.06C14.914 9.06 15.8193 9.43333 16.426 10.18C17.042 10.9173 17.35 11.9813 17.35 13.372C17.35 14.2867 17.2287 15.094 16.986 15.794C16.7527 16.494 16.384 17.082 15.88 17.558C15.3853 18.034 14.7507 18.398 13.976 18.65C13.2013 18.8927 12.282 19.0187 11.218 19.028C11.2087 18.7293 11.1947 18.44 11.176 18.16C11.1573 17.88 11.1387 17.5907 11.12 17.292C11.652 17.2827 12.1327 17.2453 12.562 17.18C12.9913 17.1053 13.3693 16.9887 13.696 16.83C14.0227 16.662 14.298 16.4427 14.522 16.172C14.7553 15.9013 14.9373 15.5607 15.068 15.15Z" fill="#F2761D"/>
</svg>
